<svg viewBox="0 0 300 300" xmlns="http://www.w3.org/2000/svg">
  <rect width="300" height="300" fill="#FBFAF7"/>
  
      <path d="M 116 44 L 184 44 L 178 6 L 122 6 Z" fill="#B8935F" opacity="0.85"/>
      <path d="M 116 256 L 184 256 L 178 294 L 122 294 Z" fill="#B8935F" opacity="0.85"/>
      <line x1="130" y1="30" x2="170" y2="30" stroke="#16181C" stroke-width="1" opacity="0.3"/>
      <line x1="130" y1="270" x2="170" y2="270" stroke="#16181C" stroke-width="1" opacity="0.3"/>
    
  <circle cx="150" cy="150" r="106" fill="#25282C" />
  <circle cx="150" cy="150" r="106" fill="none" stroke="#16181C" stroke-width="1" opacity="0.15"/>
  <circle cx="150" cy="150" r="92" fill="#1B1D20" />
  <line x1="159.2" y1="62.5" x2="158.8" y2="66.5" stroke="#D8D6CE" stroke-width="0.8"/><line x1="168.3" y1="63.9" x2="167.5" y2="67.8" stroke="#D8D6CE" stroke-width="0.8"/><line x1="177.2" y1="66.3" x2="176.0" y2="70.1" stroke="#D8D6CE" stroke-width="0.8"/><line x1="185.8" y1="69.6" x2="184.2" y2="73.3" stroke="#D8D6CE" stroke-width="0.8"/><line x1="201.7" y1="78.8" x2="199.4" y2="82.0" stroke="#D8D6CE" stroke-width="0.8"/><line x1="208.9" y1="84.6" x2="206.2" y2="87.6" stroke="#D8D6CE" stroke-width="0.8"/><line x1="215.4" y1="91.1" x2="212.4" y2="93.8" stroke="#D8D6CE" stroke-width="0.8"/><line x1="221.2" y1="98.3" x2="218.0" y2="100.6" stroke="#D8D6CE" stroke-width="0.8"/><line x1="230.4" y1="114.2" x2="226.7" y2="115.8" stroke="#D8D6CE" stroke-width="0.8"/><line x1="233.7" y1="122.8" x2="229.9" y2="124.0" stroke="#D8D6CE" stroke-width="0.8"/><line x1="236.1" y1="131.7" x2="232.2" y2="132.5" stroke="#D8D6CE" stroke-width="0.8"/><line x1="237.5" y1="140.8" x2="233.5" y2="141.2" stroke="#D8D6CE" stroke-width="0.8"/><line x1="237.5" y1="159.2" x2="233.5" y2="158.8" stroke="#D8D6CE" stroke-width="0.8"/><line x1="236.1" y1="168.3" x2="232.2" y2="167.5" stroke="#D8D6CE" stroke-width="0.8"/><line x1="233.7" y1="177.2" x2="229.9" y2="176.0" stroke="#D8D6CE" stroke-width="0.8"/><line x1="230.4" y1="185.8" x2="226.7" y2="184.2" stroke="#D8D6CE" stroke-width="0.8"/><line x1="221.2" y1="201.7" x2="218.0" y2="199.4" stroke="#D8D6CE" stroke-width="0.8"/><line x1="215.4" y1="208.9" x2="212.4" y2="206.2" stroke="#D8D6CE" stroke-width="0.8"/><line x1="208.9" y1="215.4" x2="206.2" y2="212.4" stroke="#D8D6CE" stroke-width="0.8"/><line x1="201.7" y1="221.2" x2="199.4" y2="218.0" stroke="#D8D6CE" stroke-width="0.8"/><line x1="185.8" y1="230.4" x2="184.2" y2="226.7" stroke="#D8D6CE" stroke-width="0.8"/><line x1="177.2" y1="233.7" x2="176.0" y2="229.9" stroke="#D8D6CE" stroke-width="0.8"/><line x1="168.3" y1="236.1" x2="167.5" y2="232.2" stroke="#D8D6CE" stroke-width="0.8"/><line x1="159.2" y1="237.5" x2="158.8" y2="233.5" stroke="#D8D6CE" stroke-width="0.8"/><line x1="140.8" y1="237.5" x2="141.2" y2="233.5" stroke="#D8D6CE" stroke-width="0.8"/><line x1="131.7" y1="236.1" x2="132.5" y2="232.2" stroke="#D8D6CE" stroke-width="0.8"/><line x1="122.8" y1="233.7" x2="124.0" y2="229.9" stroke="#D8D6CE" stroke-width="0.8"/><line x1="114.2" y1="230.4" x2="115.8" y2="226.7" stroke="#D8D6CE" stroke-width="0.8"/><line x1="98.3" y1="221.2" x2="100.6" y2="218.0" stroke="#D8D6CE" stroke-width="0.8"/><line x1="91.1" y1="215.4" x2="93.8" y2="212.4" stroke="#D8D6CE" stroke-width="0.8"/><line x1="84.6" y1="208.9" x2="87.6" y2="206.2" stroke="#D8D6CE" stroke-width="0.8"/><line x1="78.8" y1="201.7" x2="82.0" y2="199.4" stroke="#D8D6CE" stroke-width="0.8"/><line x1="69.6" y1="185.8" x2="73.3" y2="184.2" stroke="#D8D6CE" stroke-width="0.8"/><line x1="66.3" y1="177.2" x2="70.1" y2="176.0" stroke="#D8D6CE" stroke-width="0.8"/><line x1="63.9" y1="168.3" x2="67.8" y2="167.5" stroke="#D8D6CE" stroke-width="0.8"/><line x1="62.5" y1="159.2" x2="66.5" y2="158.8" stroke="#D8D6CE" stroke-width="0.8"/><line x1="62.5" y1="140.8" x2="66.5" y2="141.2" stroke="#D8D6CE" stroke-width="0.8"/><line x1="63.9" y1="131.7" x2="67.8" y2="132.5" stroke="#D8D6CE" stroke-width="0.8"/><line x1="66.3" y1="122.8" x2="70.1" y2="124.0" stroke="#D8D6CE" stroke-width="0.8"/><line x1="69.6" y1="114.2" x2="73.3" y2="115.8" stroke="#D8D6CE" stroke-width="0.8"/><line x1="78.8" y1="98.3" x2="82.0" y2="100.6" stroke="#D8D6CE" stroke-width="0.8"/><line x1="84.6" y1="91.1" x2="87.6" y2="93.8" stroke="#D8D6CE" stroke-width="0.8"/><line x1="91.1" y1="84.6" x2="93.8" y2="87.6" stroke="#D8D6CE" stroke-width="0.8"/><line x1="98.3" y1="78.8" x2="100.6" y2="82.0" stroke="#D8D6CE" stroke-width="0.8"/><line x1="114.2" y1="69.6" x2="115.8" y2="73.3" stroke="#D8D6CE" stroke-width="0.8"/><line x1="122.8" y1="66.3" x2="124.0" y2="70.1" stroke="#D8D6CE" stroke-width="0.8"/><line x1="131.7" y1="63.9" x2="132.5" y2="67.8" stroke="#D8D6CE" stroke-width="0.8"/><line x1="140.8" y1="62.5" x2="141.2" y2="66.5" stroke="#D8D6CE" stroke-width="0.8"/>
  <circle cx="150.0" cy="66.0" r="2.6" fill="#D8D6CE" /><circle cx="192.0" cy="77.3" r="2.6" fill="#D8D6CE" /><circle cx="222.7" cy="108.0" r="2.6" fill="#D8D6CE" /><circle cx="234.0" cy="150.0" r="2.6" fill="#D8D6CE" /><circle cx="222.7" cy="192.0" r="2.6" fill="#D8D6CE" /><circle cx="192.0" cy="222.7" r="2.6" fill="#D8D6CE" /><circle cx="150.0" cy="234.0" r="2.6" fill="#D8D6CE" /><circle cx="108.0" cy="222.7" r="2.6" fill="#D8D6CE" /><circle cx="77.3" cy="192.0" r="2.6" fill="#D8D6CE" /><circle cx="66.0" cy="150.0" r="2.6" fill="#D8D6CE" /><circle cx="77.3" cy="108.0" r="2.6" fill="#D8D6CE" /><circle cx="108.0" cy="77.3" r="2.6" fill="#D8D6CE" />
  
  
  <line x1="150" y1="150" x2="181.7" y2="123.4" stroke="#D8D6CE" stroke-width="4" stroke-linecap="round"/>
  <line x1="150" y1="150" x2="171.4" y2="208.8" stroke="#D8D6CE" stroke-width="2.6" stroke-linecap="round"/>
  <line x1="150" y1="150" x2="87.8" y2="172.7" stroke="#1F4B3F" stroke-width="1.2" stroke-linecap="round"/>
  <circle cx="150" cy="150" r="4" fill="#D8D6CE"/>
  <text x="150" y="185" font-size="7" text-anchor="middle" fill="#D8D6CE" font-family="Georgia, serif" letter-spacing="1" opacity="0.8">SOHOZ SHOP BD</text>
</svg>